<svg role="img" viewBox="0 0 24 24" xmlns="http://www.w3.org/2000/svg" fill="#d4d4d8"><title>GitHub</title><path d="M12 .297c-6.63 0-12 5.373-12 12 0 5.303 3.438 9.8 8.205 11.385.6.113.82-.258.82-.577 0-.285-.01-1.04-.015-2.04-3.338.724-4.042-1.61-4.042-1.61-.546-1.387-1.333-1.756-1.333-1.756-1.09-.745.083-.729.083-.729 1.205.084 1.84 1.236 1.84 1.236 1.07 1.835 2.809 1.305 3.495.998.108-.776.418-1.305.762-1.605-2.665-.3-5.467-1.332-5.467-5.93 0-1.31.467-2.38 1.235-3.22-.123-.303-.535-1.523.117-3.176 0 0 1.008-.322 3.3 1.23a11.48 11.48 0 0 1 3-.404c1.02.005 2.045.138 3 .404 2.29-1.552 3.295-1.23 3.295-1.23.653 1.653.242 2.873.12 3.176.77.84 1.232 1.91 1.232 3.22 0 4.61-2.807 5.625-5.48 5.92.43.372.823 1.103.823 2.222 0 1.606-.015 2.898-.015 3.293 0 .322.216.695.825.577C20.565 22.092 24 17.592 24 12.297c0-6.627-5.373-12-12-12"/></svg>
