<svg xmlns="http://www.w3.org/2000/svg" width="580" height="472" viewBox="0 0 580 472">
  <path fill="#000" fill-rule="evenodd" d="M 133 347 L 132 348 L 127 348 L 126 349 L 122 349 L 121 350 L 119 350 L 118 351 L 117 351 L 116 352 L 114 352 L 112 354 L 111 354 L 109 356 L 108 356 L 106 358 L 105 358 L 103 360 L 102 360 L 101 361 L 100 361 L 98 363 L 97 363 L 95 365 L 94 365 L 92 367 L 91 367 L 89 369 L 88 369 L 86 371 L 85 371 L 83 373 L 82 373 L 80 375 L 79 375 L 77 377 L 76 377 L 74 379 L 73 379 L 71 381 L 70 381 L 68 383 L 67 383 L 65 385 L 64 385 L 62 387 L 61 387 L 59 389 L 58 389 L 56 391 L 55 391 L 54 392 L 53 392 L 51 394 L 50 394 L 48 396 L 47 396 L 45 398 L 44 398 L 42 400 L 41 400 L 39 402 L 38 402 L 36 404 L 35 404 L 33 406 L 32 406 L 30 408 L 29 408 L 27 410 L 26 410 L 24 412 L 23 412 L 21 414 L 20 414 L 17 417 L 17 418 L 16 419 L 17 420 L 17 422 L 19 424 L 20 424 L 21 425 L 22 425 L 23 426 L 24 426 L 25 427 L 27 427 L 28 428 L 30 428 L 31 429 L 35 429 L 36 430 L 43 430 L 44 431 L 542 431 L 543 430 L 549 430 L 550 429 L 554 429 L 555 428 L 557 428 L 558 427 L 560 427 L 561 426 L 563 426 L 565 424 L 566 424 L 568 422 L 568 420 L 569 419 L 568 418 L 568 417 L 565 414 L 564 414 L 562 412 L 561 412 L 559 410 L 558 410 L 556 408 L 555 408 L 553 406 L 552 406 L 550 404 L 549 404 L 547 402 L 546 402 L 544 400 L 543 400 L 541 398 L 540 398 L 538 396 L 537 396 L 535 394 L 534 394 L 532 392 L 531 392 L 529 390 L 528 390 L 526 388 L 525 388 L 524 387 L 523 387 L 521 385 L 520 385 L 518 383 L 517 383 L 515 381 L 514 381 L 512 379 L 511 379 L 509 377 L 508 377 L 506 375 L 505 375 L 503 373 L 502 373 L 500 371 L 499 371 L 497 369 L 496 369 L 494 367 L 493 367 L 491 365 L 490 365 L 488 363 L 487 363 L 485 361 L 484 361 L 482 359 L 481 359 L 479 357 L 478 357 L 477 356 L 476 356 L 474 354 L 473 354 L 471 352 L 470 352 L 469 351 L 467 351 L 466 350 L 464 350 L 463 349 L 459 349 L 458 348 L 453 348 L 452 347 Z
M 271 370 L 272 369 L 273 370 L 274 370 L 275 371 L 277 371 L 280 374 L 281 374 L 283 376 L 284 376 L 286 378 L 287 378 L 288 379 L 289 379 L 291 381 L 292 381 L 294 383 L 295 383 L 296 384 L 297 384 L 299 386 L 300 386 L 302 388 L 303 388 L 305 390 L 306 390 L 307 391 L 308 391 L 310 393 L 311 393 L 313 395 L 314 395 L 315 396 L 316 396 L 317 397 L 317 390 L 316 389 L 316 373 L 318 371 L 323 371 L 324 370 L 327 373 L 327 381 L 328 382 L 328 386 L 339 386 L 340 387 L 340 389 L 341 390 L 341 392 L 338 395 L 328 395 L 328 396 L 329 397 L 329 406 L 328 407 L 328 409 L 327 410 L 326 410 L 325 411 L 323 411 L 322 412 L 319 412 L 318 411 L 317 411 L 316 410 L 315 410 L 314 409 L 313 409 L 312 408 L 311 408 L 309 406 L 308 406 L 306 404 L 305 404 L 304 403 L 303 403 L 301 401 L 300 401 L 298 399 L 297 399 L 295 397 L 294 397 L 292 395 L 291 395 L 290 394 L 289 394 L 287 392 L 286 392 L 284 390 L 283 390 L 280 387 L 280 390 L 281 391 L 281 395 L 282 396 L 282 403 L 283 404 L 283 409 L 282 410 L 281 410 L 280 411 L 278 411 L 277 412 L 275 412 L 274 413 L 272 413 L 270 411 L 270 410 L 269 409 L 269 405 L 268 404 L 268 398 L 258 398 L 256 396 L 256 392 L 255 391 L 257 389 L 266 389 L 267 388 L 267 386 L 266 385 L 266 374 L 268 372 L 269 372 L 270 371 L 271 371 Z
M 451 57 L 450 58 L 449 58 L 448 59 L 447 59 L 444 62 L 444 63 L 443 64 L 443 65 L 442 66 L 442 75 L 443 76 L 443 77 L 444 78 L 444 79 L 445 80 L 445 82 L 446 83 L 446 85 L 447 86 L 447 87 L 448 88 L 448 91 L 449 92 L 449 94 L 450 95 L 450 98 L 451 99 L 451 102 L 452 103 L 452 107 L 453 108 L 453 112 L 454 113 L 454 120 L 455 121 L 455 134 L 456 135 L 456 140 L 455 141 L 455 155 L 454 156 L 454 162 L 453 163 L 453 168 L 452 169 L 452 172 L 451 173 L 451 176 L 450 177 L 450 180 L 449 181 L 449 183 L 448 184 L 448 187 L 447 188 L 447 190 L 446 191 L 446 192 L 445 193 L 445 195 L 444 196 L 444 197 L 443 198 L 443 200 L 442 201 L 442 210 L 443 211 L 443 212 L 448 217 L 449 217 L 450 218 L 453 218 L 454 219 L 456 219 L 457 218 L 460 218 L 461 217 L 462 217 L 467 212 L 467 211 L 468 210 L 468 208 L 469 207 L 469 206 L 470 205 L 470 203 L 471 202 L 471 201 L 472 200 L 472 198 L 473 197 L 473 195 L 474 194 L 474 191 L 475 190 L 475 188 L 476 187 L 476 184 L 477 183 L 477 180 L 478 179 L 478 176 L 479 175 L 479 170 L 480 169 L 480 164 L 481 163 L 481 156 L 482 155 L 482 120 L 481 119 L 481 112 L 480 111 L 480 106 L 479 105 L 479 101 L 478 100 L 478 96 L 477 95 L 477 92 L 476 91 L 476 88 L 475 87 L 475 85 L 474 84 L 474 82 L 473 81 L 473 79 L 472 78 L 472 76 L 471 75 L 471 73 L 470 72 L 470 70 L 469 69 L 469 68 L 468 67 L 468 66 L 467 65 L 467 64 L 466 63 L 466 62 L 463 59 L 462 59 L 461 58 L 460 58 L 459 57 Z
M 506 34 L 505 35 L 501 35 L 500 36 L 499 36 L 494 41 L 494 42 L 493 43 L 493 52 L 494 53 L 494 55 L 495 56 L 495 57 L 496 58 L 496 59 L 497 60 L 497 62 L 498 63 L 498 65 L 499 66 L 499 68 L 500 69 L 500 71 L 501 72 L 501 74 L 502 75 L 502 77 L 503 78 L 503 80 L 504 81 L 504 84 L 505 85 L 505 88 L 506 89 L 506 93 L 507 94 L 507 98 L 508 99 L 508 103 L 509 104 L 509 110 L 510 111 L 510 119 L 511 120 L 511 155 L 510 156 L 510 164 L 509 165 L 509 171 L 508 172 L 508 177 L 507 178 L 507 182 L 506 183 L 506 186 L 505 187 L 505 190 L 504 191 L 504 194 L 503 195 L 503 197 L 502 198 L 502 201 L 501 202 L 501 204 L 500 205 L 500 207 L 499 208 L 499 210 L 498 211 L 498 212 L 497 213 L 497 215 L 496 216 L 496 217 L 495 218 L 495 220 L 494 221 L 494 222 L 493 223 L 493 232 L 494 233 L 494 234 L 495 235 L 495 236 L 497 238 L 498 238 L 500 240 L 502 240 L 503 241 L 509 241 L 510 240 L 512 240 L 514 238 L 515 238 L 517 236 L 517 235 L 518 234 L 518 233 L 519 232 L 519 231 L 520 230 L 520 228 L 521 227 L 521 226 L 522 225 L 522 223 L 523 222 L 523 220 L 524 219 L 524 218 L 525 217 L 525 215 L 526 214 L 526 212 L 527 211 L 527 209 L 528 208 L 528 205 L 529 204 L 529 202 L 530 201 L 530 198 L 531 197 L 531 194 L 532 193 L 532 190 L 533 189 L 533 185 L 534 184 L 534 180 L 535 179 L 535 173 L 536 172 L 536 166 L 537 165 L 537 156 L 538 155 L 538 121 L 537 120 L 537 110 L 536 109 L 536 103 L 535 102 L 535 97 L 534 96 L 534 92 L 533 91 L 533 87 L 532 86 L 532 83 L 531 82 L 531 78 L 530 77 L 530 75 L 529 74 L 529 71 L 528 70 L 528 68 L 527 67 L 527 65 L 526 64 L 526 62 L 525 61 L 525 59 L 524 58 L 524 56 L 523 55 L 523 53 L 522 52 L 522 51 L 521 50 L 521 48 L 520 47 L 520 46 L 519 45 L 519 43 L 518 42 L 518 41 L 513 36 L 512 36 L 511 35 L 507 35 Z
M 285 21 L 284 22 L 276 22 L 275 23 L 271 23 L 270 24 L 267 24 L 266 25 L 263 25 L 262 26 L 260 26 L 259 27 L 256 27 L 255 28 L 254 28 L 253 29 L 251 29 L 250 30 L 249 30 L 248 31 L 246 31 L 245 32 L 244 32 L 243 33 L 242 33 L 241 34 L 240 34 L 239 35 L 238 35 L 237 36 L 236 36 L 234 38 L 233 38 L 232 39 L 231 39 L 229 41 L 228 41 L 226 43 L 225 43 L 222 46 L 221 46 L 215 52 L 214 52 L 208 58 L 208 59 L 202 65 L 202 66 L 199 69 L 199 70 L 196 73 L 196 74 L 195 75 L 195 76 L 193 78 L 193 79 L 192 80 L 192 81 L 190 83 L 190 84 L 189 85 L 189 86 L 188 87 L 188 88 L 187 89 L 187 91 L 186 92 L 186 93 L 185 94 L 185 95 L 184 96 L 184 98 L 183 99 L 183 101 L 182 102 L 182 104 L 181 105 L 181 108 L 180 109 L 180 112 L 179 113 L 179 117 L 178 118 L 178 123 L 177 124 L 177 151 L 178 152 L 178 157 L 179 158 L 179 162 L 180 163 L 180 167 L 181 168 L 181 170 L 182 171 L 182 173 L 183 174 L 183 176 L 184 177 L 184 179 L 185 180 L 185 182 L 186 183 L 186 184 L 187 185 L 187 186 L 188 187 L 188 188 L 189 189 L 189 190 L 190 191 L 190 192 L 191 193 L 191 194 L 193 196 L 193 197 L 194 198 L 194 199 L 196 201 L 196 202 L 198 204 L 198 205 L 200 207 L 200 208 L 204 212 L 204 213 L 217 226 L 218 226 L 222 230 L 223 230 L 226 233 L 227 233 L 229 235 L 230 235 L 232 237 L 231 238 L 230 238 L 229 239 L 226 239 L 225 240 L 223 240 L 222 241 L 220 241 L 219 242 L 216 242 L 215 243 L 213 243 L 212 244 L 209 244 L 208 245 L 206 245 L 205 246 L 203 246 L 202 247 L 199 247 L 198 248 L 196 248 L 195 249 L 193 249 L 192 250 L 190 250 L 189 251 L 187 251 L 186 252 L 184 252 L 183 253 L 181 253 L 180 254 L 178 254 L 177 255 L 176 255 L 175 256 L 173 256 L 172 257 L 171 257 L 170 258 L 169 258 L 168 259 L 166 259 L 165 260 L 164 260 L 163 261 L 162 261 L 161 262 L 160 262 L 159 263 L 158 263 L 157 264 L 156 264 L 154 266 L 153 266 L 152 267 L 151 267 L 149 269 L 148 269 L 146 271 L 145 271 L 142 274 L 141 274 L 136 279 L 135 279 L 131 283 L 131 284 L 128 287 L 129 288 L 129 290 L 130 291 L 130 293 L 131 294 L 131 296 L 132 297 L 132 298 L 133 299 L 133 300 L 134 301 L 134 303 L 135 304 L 135 305 L 136 306 L 136 307 L 137 308 L 137 310 L 138 311 L 138 312 L 139 313 L 139 314 L 140 315 L 140 317 L 141 318 L 141 319 L 142 320 L 142 321 L 143 322 L 143 323 L 430 323 L 431 322 L 431 321 L 432 320 L 432 319 L 433 318 L 433 317 L 434 316 L 434 315 L 435 314 L 435 313 L 436 312 L 436 311 L 437 310 L 437 309 L 438 308 L 438 307 L 439 306 L 439 305 L 440 304 L 440 303 L 441 302 L 441 300 L 442 299 L 442 298 L 443 297 L 443 296 L 444 295 L 444 293 L 428 277 L 427 277 L 422 272 L 421 272 L 418 269 L 417 269 L 414 266 L 413 266 L 411 264 L 410 264 L 408 262 L 407 262 L 405 260 L 404 260 L 402 258 L 401 258 L 399 256 L 398 256 L 397 255 L 396 255 L 395 254 L 394 254 L 392 252 L 391 252 L 390 251 L 389 251 L 388 250 L 387 250 L 386 249 L 385 249 L 384 248 L 383 248 L 382 247 L 381 247 L 380 246 L 379 246 L 378 245 L 376 245 L 375 244 L 374 244 L 373 243 L 372 243 L 371 242 L 369 242 L 368 241 L 366 241 L 365 240 L 364 240 L 363 239 L 361 239 L 360 238 L 358 238 L 357 237 L 359 235 L 360 235 L 362 233 L 363 233 L 365 231 L 366 231 L 369 228 L 370 228 L 378 220 L 379 220 L 379 219 L 387 211 L 387 210 L 390 207 L 390 206 L 393 203 L 393 202 L 395 200 L 395 199 L 396 198 L 396 197 L 398 195 L 398 194 L 399 193 L 399 192 L 400 191 L 400 190 L 401 189 L 401 188 L 402 187 L 402 186 L 403 185 L 403 183 L 404 182 L 404 181 L 405 180 L 405 178 L 406 177 L 406 175 L 407 174 L 407 172 L 408 171 L 408 169 L 409 168 L 409 165 L 410 164 L 410 161 L 411 160 L 411 155 L 412 154 L 412 145 L 413 144 L 413 131 L 412 130 L 412 122 L 411 121 L 411 116 L 410 115 L 410 111 L 409 110 L 409 107 L 408 106 L 408 104 L 407 103 L 407 101 L 406 100 L 406 98 L 405 97 L 405 96 L 404 95 L 404 93 L 403 92 L 403 91 L 402 90 L 402 88 L 401 87 L 401 86 L 400 85 L 400 84 L 399 83 L 399 82 L 397 80 L 397 79 L 396 78 L 396 77 L 394 75 L 394 74 L 392 72 L 392 71 L 389 68 L 389 67 L 386 64 L 386 63 L 371 48 L 370 48 L 367 45 L 366 45 L 363 42 L 362 42 L 360 40 L 359 40 L 357 38 L 356 38 L 355 37 L 354 37 L 353 36 L 352 36 L 351 35 L 350 35 L 349 34 L 348 34 L 347 33 L 346 33 L 345 32 L 344 32 L 343 31 L 342 31 L 341 30 L 339 30 L 338 29 L 337 29 L 336 28 L 334 28 L 333 27 L 331 27 L 330 26 L 328 26 L 327 25 L 324 25 L 323 24 L 319 24 L 318 23 L 314 23 L 313 22 L 305 22 L 304 21 Z"/>
</svg>