<svg xmlns="http://www.w3.org/2000/svg" width="671" height="684" viewBox="0 0 671 684" role="img" aria-label="Explorer icon monochrome">
  <ellipse cx="332.5" cy="339" rx="318" ry="326.5" fill="#9bbc0f"/>
  <path d="M511 206 507 203 500 202 287 270 282 275 155 453 151 461 151 466 153 470 159 475 166 475 378 407 386 398 512 221 514 213Z" fill="#0f380f"/>
  <path d="M293 65 285 73 286 109 270 111 268 113 270 128 287 129 290 154 289 156 291 160 290 162 296 164 297 162 300 162 302 158 304 161 309 156 306 114 304 111 305 103 330 129 358 155 368 162 371 162 376 158 377 159 380 155 381 150 380 122 398 121 400 118 400 111 398 103 385 105 379 104 378 71 375 67 369 67 366 70 365 69 363 74 363 99 365 112 364 130 300 69Z" fill="#0f380f"/>
</svg>
