<svg xmlns="http://www.w3.org/2000/svg" width="671" height="684" viewBox="0 0 671 684" role="img" aria-label="clean compass icon without grid lines">
  <ellipse cx="332.500" cy="339.000" rx="318.000" ry="326.500" fill="#000"/>
  <path d="M 511 206 L 507 203 L 500 202 L 287 270 L 282 275 L 155 453 L 151 461 L 151 466 L 153 470 L 159 475 L 166 475 L 378 407 L 386 398 L 512 221 L 514 213 Z" fill="#fff"/>
  <path d="M 293 65 L 285 73 L 286 109 L 270 111 L 268 113 L 270 128 L 287 129 L 290 154 L 289 156 L 291 160 L 290 162 L 296 164 L 297 162 L 300 162 L 302 158 L 304 161 L 309 156 L 306 114 L 304 111 L 305 103 L 330 129 L 358 155 L 368 162 L 371 162 L 376 158 L 377 159 L 380 155 L 381 150 L 380 122 L 398 121 L 400 118 L 400 111 L 398 103 L 385 105 L 379 104 L 378 71 L 375 67 L 369 67 L 366 70 L 365 69 L 363 74 L 363 99 L 365 112 L 364 130 L 300 69 Z" fill="#fff"/>
</svg>