<svg xmlns="http://www.w3.org/2000/svg" width="767" height="760" viewBox="0 0 767 760">
  <path fill="black" fill-rule="evenodd" d="
    M 305 567 L 299 560 L 292 556 L 285 554 L 273 555 L 265 559 L 259 565 L 251 581 L 235 602 L 222 614 L 205 626 L 188 635 L 163 644 L 142 649 L 137 649 L 136 650 L 120 651 L 119 648 L 120 647 L 121 633 L 122 632 L 126 610 L 134 587 L 145 565 L 158 547 L 175 530 L 189 520 L 205 512 L 212 505 L 216 496 L 217 488 L 216 487 L 215 479 L 211 472 L 206 467 L 195 462 L 183 462 L 173 466 L 152 481 L 134 499 L 121 515 L 111 530 L 99 552 L 99 554 L 92 569 L 86 590 L 85 600 L 84 601 L 84 608 L 83 609 L 83 621 L 93 591 L 96 585 L 100 582 L 101 583 L 101 591 L 100 592 L 100 599 L 99 600 L 99 605 L 93 625 L 86 640 L 66 671 L 61 681 L 60 692 L 62 696 L 69 701 L 89 699 L 90 698 L 102 697 L 103 696 L 108 696 L 109 695 L 128 692 L 159 683 L 191 667 L 218 650 L 234 638 L 236 639 L 229 646 L 187 682 L 187 683 L 218 671 L 240 660 L 272 639 L 284 629 L 297 615 L 305 602 L 306 594 L 309 586 L 309 577 Z
    M 698 40 L 687 37 L 636 37 L 635 38 L 611 40 L 610 41 L 586 45 L 567 51 L 564 51 L 534 62 L 505 76 L 488 86 L 465 102 L 438 125 L 256 308 L 245 313 L 232 313 L 223 309 L 216 302 L 210 286 L 211 285 L 236 303 L 239 304 L 370 167 L 357 159 L 328 145 L 305 139 L 288 138 L 287 137 L 258 137 L 257 138 L 243 138 L 242 139 L 233 139 L 232 140 L 224 140 L 223 141 L 212 142 L 183 156 L 174 162 L 47 289 L 41 298 L 38 305 L 35 316 L 35 333 L 36 334 L 36 338 L 39 347 L 44 356 L 59 371 L 71 377 L 83 380 L 97 381 L 98 382 L 104 382 L 105 383 L 111 383 L 112 384 L 118 384 L 126 386 L 133 386 L 134 387 L 140 387 L 141 388 L 147 388 L 148 389 L 154 389 L 155 390 L 161 390 L 162 391 L 168 391 L 169 392 L 217 398 L 373 554 L 374 567 L 375 568 L 375 574 L 376 575 L 376 581 L 377 582 L 377 588 L 378 589 L 378 595 L 380 603 L 380 610 L 381 611 L 381 617 L 382 618 L 382 624 L 383 625 L 383 631 L 384 632 L 384 638 L 385 639 L 386 653 L 387 654 L 392 694 L 399 710 L 404 717 L 414 726 L 425 732 L 440 736 L 453 736 L 468 732 L 483 723 L 608 598 L 619 580 L 619 577 L 621 573 L 629 542 L 629 538 L 633 523 L 634 512 L 635 511 L 636 496 L 637 495 L 637 467 L 636 466 L 635 457 L 630 443 L 619 421 L 605 401 L 474 531 L 476 539 L 486 558 L 485 561 L 473 558 L 462 548 L 458 539 L 458 526 L 463 515 L 652 326 L 667 308 L 684 284 L 694 267 L 706 243 L 721 202 L 729 169 L 731 151 L 732 150 L 733 130 L 734 129 L 734 86 L 730 71 L 721 56 L 711 47 Z
    M 458 284 L 462 288 L 464 295 L 447 312 L 474 339 L 474 345 L 472 347 L 470 355 L 463 359 L 441 362 L 440 363 L 415 365 L 414 366 L 413 365 L 405 367 L 393 367 L 385 369 L 384 368 L 383 369 L 374 369 L 373 370 L 360 370 L 366 376 L 368 376 L 381 387 L 385 389 L 386 391 L 407 408 L 406 416 L 404 418 L 402 416 L 403 421 L 400 424 L 400 428 L 396 431 L 392 432 L 391 429 L 388 429 L 362 407 L 345 424 L 341 422 L 339 419 L 337 419 L 335 416 L 332 415 L 330 411 L 332 407 L 345 393 L 340 388 L 337 387 L 316 366 L 315 364 L 316 356 L 317 355 L 316 354 L 317 352 L 316 350 L 321 347 L 329 346 L 330 345 L 343 345 L 344 344 L 352 344 L 360 342 L 371 342 L 379 340 L 400 339 L 407 337 L 415 337 L 416 336 L 436 334 L 426 323 L 421 320 L 391 291 L 388 285 L 390 283 L 390 280 L 395 276 L 396 272 L 404 273 L 432 298 L 434 297 L 437 292 L 448 280 L 452 280 L 456 284 Z
  "/>
</svg>