<?xml version="1.0" encoding="iso-8859-1"?>
<!-- Uploaded to: SVG Repo, www.svgrepo.com, Generator: SVG Repo Mixer Tools -->
<svg fill="#000000" height="800px" width="800px" version="1.1" id="Layer_1" xmlns="http://www.w3.org/2000/svg" xmlns:xlink="http://www.w3.org/1999/xlink" 
	 viewBox="0 0 512 512" xml:space="preserve">
<g>
	<g>
		<path d="M488.728,0C481.152,0,30.924,0,23.273,0c-9.864,0-17.86,7.997-17.86,17.86c0,18.145,0,456.107,0,476.279
			c0,9.864,7.997,17.86,17.86,17.86c7.576,0,457.804,0,465.454,0c9.864,0,17.86-7.997,17.86-17.86c0-18.145,0-456.107,0-476.279
			C506.589,7.997,498.592,0,488.728,0z M448.136,35.721h22.732v59.535h-22.732V35.721z M448.136,130.977h22.732v59.535h-22.732
			V130.977z M448.136,226.233h22.732v59.535h-22.732V226.233z M63.865,476.279H41.133v-59.535h22.732V476.279z M63.865,381.023
			H41.133v-59.535h22.732V381.023z M63.865,285.767H41.133v-59.535h22.732V285.767z M63.865,190.512H41.133v-59.535h22.732V190.512z
			 M63.865,95.256H41.133V35.721h22.732V95.256z M412.415,416.744H99.586c0-12.926,0-22.795,0-35.721h26.473
			c4.329-38.992,25.86-72.871,56.825-93.833c18.565,19.045,44.482,30.893,73.117,30.893s54.551-11.847,73.117-30.893
			c30.966,20.961,52.495,54.841,56.825,93.833h26.473C412.415,393.949,412.415,403.818,412.415,416.744z M180.497,215.933
			c0-41.633,33.871-75.503,75.503-75.503s75.503,33.871,75.503,75.503s-33.871,75.503-75.503,75.503
			S180.497,257.566,180.497,215.933z M412.415,130.977H99.586c0-12.926,0-22.795,0-35.721h312.83
			C412.415,108.182,412.415,118.051,412.415,130.977z M470.868,476.279h-22.732v-59.535h22.732V476.279z M470.868,381.023h-22.732
			v-59.535h22.732V381.023z"/>
	</g>
</g>
</svg>