<svg xmlns="http://www.w3.org/2000/svg" width="124" height="86" viewBox="0 0 124 86" role="img" aria-label="Network School icon monochrome">
  <path
    fill="#000"
    fill-rule="evenodd"
    clip-rule="evenodd"
    d="M40.1087 81.8419C21.5997 81.8419 11.4159 82.9191 1.81656 84.5685C0.869231 84.7304 0 84.0039 0 83.043V4.61958C0 3.84264 0.576104 3.18723 1.34662 3.08793L3.23621 2.84327C12.3092 1.66515 23.4836 0.214177 37.9697 0.214177C50.4981 0.214177 60.7967 1.35132 69.9052 2.35705C77.1268 3.15434 83.6007 3.86917 89.8441 3.86917C103.115 3.86917 112.701 3.33092 121.798 2.25441C122.721 2.14528 123.535 2.86293 123.535 3.79171V82.4386C123.535 83.1586 123.04 83.7843 122.331 83.9044C116.07 84.9661 101.326 85.4967 89.8441 85.4967C84.3798 85.4967 77.7549 84.7753 70.3908 83.9737L70.3773 83.9725C61.1679 82.9698 50.8038 81.8419 40.1087 81.8419ZM66.2617 20.6281V38.5002C74.2623 39.3718 78.6129 39.808 84.4934 39.808V50.7728C79.0644 50.7728 73.6355 50.3373 66.2617 49.4644V67.5762C63.6516 67.1009 61.9374 66.8594 60.5501 66.6642L60.5424 66.6629C59.1185 66.4618 58.0389 66.3096 56.685 66.0013C56.615 64.4777 56.5996 56.9364 56.6079 48.368C49.2669 47.727 43.0255 47.727 39.5717 47.727V37.1584C40.1549 37.1584 40.7472 37.1578 41.349 37.1565C45.857 37.1494 50.9034 37.1411 56.6265 37.5451C56.6503 27.9751 56.685 19.7055 56.685 19.7055C59.3587 19.7055 66.2617 20.6281 66.2617 20.6281Z"
  />
</svg>
