<svg xmlns="http://www.w3.org/2000/svg" width="635" height="707" viewBox="0 0 635 707">
  <path d="M 57 40 L 46 49 L 39 59 L 34 71 L 33 83 L 32 84 L 32 620 L 35 636 L 39 645 L 43 651 L 56 663 L 67 668 L 77 669 L 78 670 L 98 670 L 99 669 L 100 670 L 132 670 L 133 669 L 134 670 L 165 670 L 166 669 L 167 670 L 199 670 L 200 669 L 201 670 L 232 670 L 233 669 L 234 670 L 266 670 L 267 669 L 268 670 L 299 670 L 300 669 L 301 670 L 333 670 L 334 669 L 335 670 L 366 670 L 367 669 L 368 670 L 407 670 L 418 667 L 424 664 L 436 654 L 588 484 L 593 477 L 599 463 L 601 453 L 601 79 L 599 70 L 595 60 L 589 51 L 578 41 L 565 35 L 560 35 L 559 34 L 74 34 L 63 37 Z
M 543 458 L 544 459 L 538 465 L 538 466 L 529 475 L 529 476 L 512 494 L 512 495 L 504 503 L 504 504 L 496 512 L 496 513 L 487 522 L 487 523 L 479 531 L 479 532 L 470 541 L 470 542 L 462 550 L 462 551 L 453 560 L 453 561 L 444 570 L 444 571 L 436 579 L 436 580 L 412 606 L 411 605 L 411 459 L 412 458 Z
M 125 112 L 127 110 L 131 108 L 133 105 L 135 105 L 135 104 L 138 100 L 139 100 L 140 102 L 144 102 L 145 104 L 146 104 L 149 107 L 152 108 L 153 110 L 154 110 L 173 128 L 174 128 L 178 132 L 179 132 L 186 139 L 187 139 L 199 150 L 200 150 L 204 154 L 205 154 L 213 162 L 214 162 L 217 165 L 218 165 L 236 181 L 237 181 L 240 184 L 241 184 L 244 187 L 245 187 L 244 186 L 244 169 L 245 168 L 244 167 L 244 162 L 243 161 L 243 147 L 242 146 L 242 115 L 243 114 L 244 109 L 247 106 L 249 107 L 249 106 L 251 104 L 253 104 L 254 105 L 256 104 L 258 105 L 260 103 L 262 103 L 263 104 L 263 106 L 267 110 L 267 116 L 268 117 L 268 137 L 269 138 L 269 154 L 277 154 L 278 153 L 292 153 L 293 154 L 295 152 L 296 152 L 299 155 L 299 162 L 300 163 L 300 169 L 301 170 L 300 171 L 300 173 L 296 178 L 270 178 L 270 182 L 271 183 L 271 216 L 270 217 L 270 222 L 266 227 L 264 228 L 262 227 L 261 229 L 259 229 L 256 232 L 250 232 L 243 227 L 240 226 L 237 223 L 236 223 L 220 209 L 219 209 L 216 206 L 215 206 L 210 201 L 209 201 L 204 196 L 203 196 L 201 193 L 200 193 L 196 189 L 195 189 L 185 179 L 184 179 L 176 172 L 175 172 L 160 157 L 159 157 L 156 153 L 156 155 L 157 156 L 157 165 L 159 168 L 158 169 L 159 170 L 159 179 L 160 180 L 160 187 L 161 188 L 161 199 L 162 200 L 162 221 L 163 222 L 163 224 L 155 231 L 152 227 L 151 231 L 150 232 L 148 231 L 147 232 L 145 232 L 143 235 L 138 235 L 133 231 L 134 228 L 132 227 L 131 211 L 130 210 L 130 202 L 129 201 L 129 187 L 103 187 L 101 184 L 101 178 L 102 177 L 100 175 L 100 172 L 101 171 L 99 168 L 99 166 L 103 162 L 112 162 L 113 161 L 126 161 L 127 160 L 126 150 L 125 149 Z" fill="black" fill-rule="evenodd" clip-rule="evenodd"/>
  <path d="M 151 212 L 151 213 L 151 214 L 151 215 L 151 214 L 151 213
M 135 196 l 0.01 0
M 205 192 l 0.01 0
M 145 162 L 145 163 L 145 164 L 145 163
M 144 155 L 144 156 L 144 157 L 144 158 L 144 159 L 144 158 L 144 157 L 144 156
M 181 152 l 0.01 0
M 143 149 L 143 150 L 143 151 L 143 150
M 189 146 l 0.01 0
M 157 118 l 0.01 0" fill="none" stroke="#000" stroke-width="1" stroke-linecap="round" stroke-linejoin="round"/>
</svg>